<svg width="596" height="411" fill="none" xmlns="http://www.w3.org/2000/svg"><circle cx="277.084" cy="228.817" r="226.383" stroke="#C6D8EB" stroke-width="1.623"/><circle cx="440.576" cy="384.577" r="9.423" fill="#C6D8EB"/><circle cx="277.085" cy="228.817" r="169.585" stroke="#C6D8EB" stroke-width="1.623"/><circle cx="52.123" cy="204.738" r="8.925" fill="#C6D8EB"/><circle cx="277.085" cy="228.817" r="116.032" stroke="#C6D8EB" stroke-width="1.623"/><g filter="url(#image__a)"><rect x="353" y="290.267" width="94.393" height="58.733" rx="8.39" fill="#fff"/></g><path d="m370.527 333.022-2.648-3.549c-.399-.534-1.043-.534-1.442 0l-2.648 3.549c-.644.864-.184 2.343.726 2.343h5.296c.91 0 1.36-1.479.716-2.343Z" fill="#01B574"/><rect x="375.025" y="329.073" width="38.806" height="6.293" rx="3.146" fill="#EDF2F7"/><rect x="363.28" y="315.51" width="68.533" height="6.853" rx="3.427" fill="#EDF2F7"/><g filter="url(#image__b)"><rect x="363.28" y="301.804" width="38.55" height="6.853" rx="3.427" fill="#4318FF"/></g><circle cx="391.493" cy="238.554" r="8.925" fill="#C6D8EB"/><circle cx="277.084" cy="228.817" r="60.856" stroke="#C6D8EB" stroke-width="1.623"/><g filter="url(#image__c)"><rect x="32.851" y="69.781" width="167.15" height="64.289" rx="10.286" fill="#fff"/></g><rect x="82.995" y="96.782" width="102.862" height="10.286" rx="5.143" fill="#EDF2F7"/><g filter="url(#image__d)"><path d="M48.28 112.221h19.364c1.98 0 3.215-2.147 2.224-3.857l-9.681-16.728c-.99-1.71-3.46-1.71-4.45 0l-9.681 16.728c-.99 1.71.244 3.857 2.224 3.857Zm9.682-9a1.29 1.29 0 0 1-1.286-1.286v-2.571a1.29 1.29 0 0 1 1.286-1.286 1.29 1.29 0 0 1 1.286 1.286v2.571a1.29 1.29 0 0 1-1.286 1.286Zm1.286 5.143h-2.572v-2.572h2.572v2.572Z" fill="#4318FF"/></g><g filter="url(#image__e)"><rect x="15" y="290.484" width="110.352" height="87.278" rx="8.026" fill="#fff"/></g><rect x="48.105" y="312.555" width="45.144" height="8.026" rx="4.013" fill="#EDF2F7"/><rect x="30.048" y="328.606" width="80.256" height="8.026" rx="4.013" fill="#EDF2F7"/><rect x="43.09" y="355.692" width="26.083" height="8.026" rx="4.013" fill="#EDF2F7"/><g filter="url(#image__f)"><rect x="72.183" y="355.692" width="26.083" height="8.026" rx="4.013" fill="#4318FF"/></g><g filter="url(#image__g)"><rect x="463.789" y="151.879" width="115.951" height="60.651" rx="8.736" fill="#fff"/></g><rect x="474.492" y="171.501" width="40.137" height="7.135" rx="3.568" fill="#EDF2F7"/><rect x="474.492" y="185.772" width="71.354" height="7.135" rx="3.568" fill="#EDF2F7"/><g filter="url(#image__h)"><rect x="462.897" y="122.523" width="54.599" height="22.221" rx="8.736" fill="#4318FF"/></g><rect x="475.39" y="131.218" width="29.613" height="4.831" rx="2.415" fill="#fff"/><g filter="url(#image__i)"><rect x="134.63" y="216.602" width="55.37" height="25.168" rx="12.584" fill="#4318FF"/></g><rect x="167.414" y="219.516" width="19.671" height="19.671" rx="9.835" fill="#fff"/><g filter="url(#image__j)"><rect x="280.593" y="124.654" width="120.9" height="26.378" rx="13.189" fill="#fff"/></g><rect x="288.286" y="132.348" width="105.513" height="10.991" rx="5.495" fill="#EDF2F7"/><g filter="url(#image__k)"><rect x="293.782" y="132.348" width="74.738" height="10.991" rx="5.495" fill="#4318FF"/></g><g filter="url(#image__l)"><rect x="286.088" y="130.15" width="15.387" height="15.387" rx="7.694" fill="#fff"/></g><g filter="url(#image__m)"><rect x="360.826" y="130.15" width="15.387" height="15.387" rx="7.694" fill="#fff"/></g><circle cx="340.78" cy="12.577" r="12.577" fill="#C6D8EB"/><circle cx="191.577" cy="378.577" r="12.577" fill="#C6D8EB"/><g clip-path="url(#image__n)"><rect x="241" y="193" width="72" height="72" rx="36" fill="#fff"/><g filter="url(#image__o)" fill="#4318FF"><path d="M268.336 234.664h17.254v7.502h-17.254v-7.502Z"/><path d="M286.19 236.239a9.336 9.336 0 0 0-2.703-6.577 9.186 9.186 0 0 0-6.524-2.725 9.19 9.19 0 0 0-6.525 2.725 9.34 9.34 0 0 0-2.703 6.577h18.455Z"/><path fill-rule="evenodd" clip-rule="evenodd" d="M277 238.565a9.564 9.564 0 0 0 9.565-9.565c0-5.282-4.282-9.565-9.565-9.565-5.282 0-9.565 4.283-9.565 9.565 0 5.283 4.283 9.565 9.565 9.565Zm0 7.502c9.426 0 17.067-7.641 17.067-17.067s-7.641-17.067-17.067-17.067c-9.425 0-17.066 7.641-17.066 17.067s7.641 17.067 17.066 17.067Z"/></g></g><defs><filter id="image__a" x="338.317" y="281.876" width="123.759" height="88.1" filterUnits="userSpaceOnUse" color-interpolation-filters="sRGB"><feFlood flood-opacity="0" result="BackgroundImageFix"/><feColorMatrix in="SourceAlpha" values="0 0 0 0 0 0 0 0 0 0 0 0 0 0 0 0 0 0 127 0" result="hardAlpha"/><feOffset dy="6.293"/><feGaussianBlur stdDeviation="7.342"/><feComposite in2="hardAlpha" operator="out"/><feColorMatrix values="0 0 0 0 0.783353 0 0 0 0 0.812582 0 0 0 0 0.841812 0 0 0 0.6 0"/><feBlend in2="BackgroundImageFix" result="effect1_dropShadow_2493_38061"/><feBlend in="SourceGraphic" in2="effect1_dropShadow_2493_38061" result="shape"/></filter><filter id="image__b" x="344.402" y="289.218" width="76.307" height="44.61" filterUnits="userSpaceOnUse" color-interpolation-filters="sRGB"><feFlood flood-opacity="0" result="BackgroundImageFix"/><feColorMatrix in="SourceAlpha" values="0 0 0 0 0 0 0 0 0 0 0 0 0 0 0 0 0 0 127 0" result="hardAlpha"/><feOffset dy="6.293"/><feGaussianBlur stdDeviation="9.439"/><feComposite in2="hardAlpha" operator="out"/><feColorMatrix values="0 0 0 0 0.262745 0 0 0 0 0.0941176 0 0 0 0 1 0 0 0 0.5 0"/><feBlend in2="BackgroundImageFix" result="effect1_dropShadow_2493_38061"/><feBlend in="SourceGraphic" in2="effect1_dropShadow_2493_38061" result="shape"/></filter><filter id="image__c" x="14.85" y="59.495" width="203.152" height="100.29" filterUnits="userSpaceOnUse" color-interpolation-filters="sRGB"><feFlood flood-opacity="0" result="BackgroundImageFix"/><feColorMatrix in="SourceAlpha" values="0 0 0 0 0 0 0 0 0 0 0 0 0 0 0 0 0 0 127 0" result="hardAlpha"/><feOffset dy="7.715"/><feGaussianBlur stdDeviation="9"/><feComposite in2="hardAlpha" operator="out"/><feColorMatrix values="0 0 0 0 0.783353 0 0 0 0 0.812582 0 0 0 0 0.841812 0 0 0 0.6 0"/><feBlend in2="BackgroundImageFix" result="effect1_dropShadow_2493_38061"/><feBlend in="SourceGraphic" in2="effect1_dropShadow_2493_38061" result="shape"/></filter><filter id="image__d" x="22.563" y="74.924" width="70.799" height="68.156" filterUnits="userSpaceOnUse" color-interpolation-filters="sRGB"><feFlood flood-opacity="0" result="BackgroundImageFix"/><feColorMatrix in="SourceAlpha" values="0 0 0 0 0 0 0 0 0 0 0 0 0 0 0 0 0 0 127 0" result="hardAlpha"/><feOffset dy="7.715"/><feGaussianBlur stdDeviation="11.572"/><feComposite in2="hardAlpha" operator="out"/><feColorMatrix values="0 0 0 0 0.262745 0 0 0 0 0.0941176 0 0 0 0 1 0 0 0 0.5 0"/><feBlend in2="BackgroundImageFix" result="effect1_dropShadow_2493_38061"/><feBlend in="SourceGraphic" in2="effect1_dropShadow_2493_38061" result="shape"/></filter><filter id="image__e" x=".955" y="282.459" width="138.441" height="115.368" filterUnits="userSpaceOnUse" color-interpolation-filters="sRGB"><feFlood flood-opacity="0" result="BackgroundImageFix"/><feColorMatrix in="SourceAlpha" values="0 0 0 0 0 0 0 0 0 0 0 0 0 0 0 0 0 0 127 0" result="hardAlpha"/><feOffset dy="6.019"/><feGaussianBlur stdDeviation="7.022"/><feComposite in2="hardAlpha" operator="out"/><feColorMatrix values="0 0 0 0 0.783353 0 0 0 0 0.812582 0 0 0 0 0.841812 0 0 0 0.6 0"/><feBlend in2="BackgroundImageFix" result="effect1_dropShadow_2493_38061"/><feBlend in="SourceGraphic" in2="effect1_dropShadow_2493_38061" result="shape"/></filter><filter id="image__f" x="54.125" y="343.654" width="62.198" height="44.141" filterUnits="userSpaceOnUse" color-interpolation-filters="sRGB"><feFlood flood-opacity="0" result="BackgroundImageFix"/><feColorMatrix in="SourceAlpha" values="0 0 0 0 0 0 0 0 0 0 0 0 0 0 0 0 0 0 127 0" result="hardAlpha"/><feOffset dy="6.019"/><feGaussianBlur stdDeviation="9.029"/><feComposite in2="hardAlpha" operator="out"/><feColorMatrix values="0 0 0 0 0.262745 0 0 0 0 0.0941176 0 0 0 0 1 0 0 0 0.5 0"/><feBlend in2="BackgroundImageFix" result="effect1_dropShadow_2493_38061"/><feBlend in="SourceGraphic" in2="effect1_dropShadow_2493_38061" result="shape"/></filter><filter id="image__g" x="448.501" y="143.143" width="146.527" height="91.227" filterUnits="userSpaceOnUse" color-interpolation-filters="sRGB"><feFlood flood-opacity="0" result="BackgroundImageFix"/><feColorMatrix in="SourceAlpha" values="0 0 0 0 0 0 0 0 0 0 0 0 0 0 0 0 0 0 127 0" result="hardAlpha"/><feOffset dy="6.552"/><feGaussianBlur stdDeviation="7.644"/><feComposite in2="hardAlpha" operator="out"/><feColorMatrix values="0 0 0 0 0.783353 0 0 0 0 0.812582 0 0 0 0 0.841812 0 0 0 0.6 0"/><feBlend in2="BackgroundImageFix" result="effect1_dropShadow_2493_38061"/><feBlend in="SourceGraphic" in2="effect1_dropShadow_2493_38061" result="shape"/></filter><filter id="image__h" x="443.242" y="109.419" width="93.911" height="61.532" filterUnits="userSpaceOnUse" color-interpolation-filters="sRGB"><feFlood flood-opacity="0" result="BackgroundImageFix"/><feColorMatrix in="SourceAlpha" values="0 0 0 0 0 0 0 0 0 0 0 0 0 0 0 0 0 0 127 0" result="hardAlpha"/><feOffset dy="6.552"/><feGaussianBlur stdDeviation="9.828"/><feComposite in2="hardAlpha" operator="out"/><feColorMatrix values="0 0 0 0 0.262745 0 0 0 0 0.0941176 0 0 0 0 1 0 0 0 0.5 0"/><feBlend in2="BackgroundImageFix" result="effect1_dropShadow_2493_38061"/><feBlend in="SourceGraphic" in2="effect1_dropShadow_2493_38061" result="shape"/></filter><filter id="image__i" x="119.973" y="206.831" width="84.684" height="54.482" filterUnits="userSpaceOnUse" color-interpolation-filters="sRGB"><feFlood flood-opacity="0" result="BackgroundImageFix"/><feColorMatrix in="SourceAlpha" values="0 0 0 0 0 0 0 0 0 0 0 0 0 0 0 0 0 0 127 0" result="hardAlpha"/><feOffset dy="4.886"/><feGaussianBlur stdDeviation="7.328"/><feComposite in2="hardAlpha" operator="out"/><feColorMatrix values="0 0 0 0 0.262745 0 0 0 0 0.0941176 0 0 0 0 1 0 0 0 0.5 0"/><feBlend in2="BackgroundImageFix" result="effect1_dropShadow_2493_38061"/><feBlend in="SourceGraphic" in2="effect1_dropShadow_2493_38061" result="shape"/></filter><filter id="image__j" x="265.206" y="115.862" width="151.675" height="57.153" filterUnits="userSpaceOnUse" color-interpolation-filters="sRGB"><feFlood flood-opacity="0" result="BackgroundImageFix"/><feColorMatrix in="SourceAlpha" values="0 0 0 0 0 0 0 0 0 0 0 0 0 0 0 0 0 0 127 0" result="hardAlpha"/><feOffset dy="6.595"/><feGaussianBlur stdDeviation="7.694"/><feComposite in2="hardAlpha" operator="out"/><feColorMatrix values="0 0 0 0 0.783353 0 0 0 0 0.812582 0 0 0 0 0.841812 0 0 0 0.6 0"/><feBlend in2="BackgroundImageFix" result="effect1_dropShadow_2493_38061"/><feBlend in="SourceGraphic" in2="effect1_dropShadow_2493_38061" result="shape"/></filter><filter id="image__k" x="273.999" y="119.159" width="114.306" height="50.558" filterUnits="userSpaceOnUse" color-interpolation-filters="sRGB"><feFlood flood-opacity="0" result="BackgroundImageFix"/><feColorMatrix in="SourceAlpha" values="0 0 0 0 0 0 0 0 0 0 0 0 0 0 0 0 0 0 127 0" result="hardAlpha"/><feOffset dy="6.595"/><feGaussianBlur stdDeviation="9.892"/><feComposite in2="hardAlpha" operator="out"/><feColorMatrix values="0 0 0 0 0.262745 0 0 0 0 0.0941176 0 0 0 0 1 0 0 0 0.5 0"/><feBlend in2="BackgroundImageFix" result="effect1_dropShadow_2493_38061"/><feBlend in="SourceGraphic" in2="effect1_dropShadow_2493_38061" result="shape"/></filter><filter id="image__l" x="270.701" y="121.357" width="46.162" height="46.162" filterUnits="userSpaceOnUse" color-interpolation-filters="sRGB"><feFlood flood-opacity="0" result="BackgroundImageFix"/><feColorMatrix in="SourceAlpha" values="0 0 0 0 0 0 0 0 0 0 0 0 0 0 0 0 0 0 127 0" result="hardAlpha"/><feOffset dy="6.595"/><feGaussianBlur stdDeviation="7.694"/><feComposite in2="hardAlpha" operator="out"/><feColorMatrix values="0 0 0 0 0.783353 0 0 0 0 0.812582 0 0 0 0 0.841812 0 0 0 0.6 0"/><feBlend in2="BackgroundImageFix" result="effect1_dropShadow_2493_38061"/><feBlend in="SourceGraphic" in2="effect1_dropShadow_2493_38061" result="shape"/></filter><filter id="image__m" x="345.439" y="121.357" width="46.162" height="46.162" filterUnits="userSpaceOnUse" color-interpolation-filters="sRGB"><feFlood flood-opacity="0" result="BackgroundImageFix"/><feColorMatrix in="SourceAlpha" values="0 0 0 0 0 0 0 0 0 0 0 0 0 0 0 0 0 0 127 0" result="hardAlpha"/><feOffset dy="6.595"/><feGaussianBlur stdDeviation="7.694"/><feComposite in2="hardAlpha" operator="out"/><feColorMatrix values="0 0 0 0 0.783353 0 0 0 0 0.812582 0 0 0 0 0.841812 0 0 0 0.6 0"/><feBlend in2="BackgroundImageFix" result="effect1_dropShadow_2493_38061"/><feBlend in="SourceGraphic" in2="effect1_dropShadow_2493_38061" result="shape"/></filter><filter id="image__o" x="235.561" y="195.685" width="82.879" height="82.879" filterUnits="userSpaceOnUse" color-interpolation-filters="sRGB"><feFlood flood-opacity="0" result="BackgroundImageFix"/><feColorMatrix in="SourceAlpha" values="0 0 0 0 0 0 0 0 0 0 0 0 0 0 0 0 0 0 127 0" result="hardAlpha"/><feOffset dy="8.124"/><feGaussianBlur stdDeviation="12.186"/><feComposite in2="hardAlpha" operator="out"/><feColorMatrix values="0 0 0 0 0.262745 0 0 0 0 0.0941176 0 0 0 0 1 0 0 0 0.5 0"/><feBlend in2="BackgroundImageFix" result="effect1_dropShadow_2493_38061"/><feBlend in="SourceGraphic" in2="effect1_dropShadow_2493_38061" result="shape"/></filter><clipPath id="image__n"><path fill="#fff" transform="translate(241 193)" d="M0 0h72v72H0z"/></clipPath></defs></svg>